<svg width="396" height="210.60981795568824" viewBox="0 0 349.99999999999994 186.1450411224517"
    class="looka-1j8o68f">
    <defs id="SvgjsDefs1486"></defs>
    <g id="SvgjsG1487" featurekey="JQyOZB-0"
        transform="matrix(1.5217391304347825,0,0,1.5217391304347825,98.91304347826087,-30.58695710223654)"
        fill="#9896f1">
        <g xmlns="http://www.w3.org/2000/svg">
            <polygon points="37,79.9 4,50 37,20.1 42.2,25.9 15.6,50 42.2,74.1  "></polygon>
            <polygon points="63,79.9 57.8,74.1 84.4,50 57.8,25.9 63,20.1 96,50  "></polygon>
        </g>
    </g>
    <g id="SvgjsG1488" featurekey="SbCDzn-0"
        transform="matrix(4.082108802429731,0,0,4.082108802429731,-0.8164253615130939,86.01749848929265)"
        fill="#9896f1">
        <path
            d="M9.18 15.34 q0 1.02 -0.23 1.92 t-0.8 1.57 t-1.54 1.06 t-2.45 0.39 q-1.36 0 -2.34 -0.33 t-1.62 -0.77 l1.04 -2.42 q0.58 0.34 1.24 0.6 t1.44 0.26 q1.14 0 1.64 -0.56 t0.5 -1.88 l0 -9.04 l3.12 0 l0 9.2 z M21.46 20 q-0.22 -0.72 -0.49 -1.48 t-0.53 -1.52 l-5.4 0 q-0.26 0.76 -0.53 1.52 t-0.49 1.48 l-3.24 0 q0.78 -2.24 1.48 -4.14 t1.37 -3.58 t1.32 -3.19 t1.35 -2.95 l2.98 0 q0.68 1.44 1.34 2.95 t1.33 3.19 t1.37 3.58 t1.48 4.14 l-3.34 0 z M17.72 9.28 q-0.1 0.3 -0.3 0.82 t-0.46 1.2 t-0.57 1.5 t-0.63 1.72 l3.94 0 q-0.32 -0.9 -0.62 -1.72 t-0.57 -1.5 t-0.47 -1.2 t-0.32 -0.82 z M26.6 6.140000000000001 l3.12 0 l0 13.86 l-3.12 0 l0 -13.86 z M42.22 20 q-1.34 -2.38 -2.9 -4.7 t-3.32 -4.38 l0 9.08 l-3.08 0 l0 -13.86 l2.54 0 q0.66 0.66 1.46 1.62 t1.63 2.05 t1.65 2.26 t1.54 2.25 l0 -8.18 l3.1 0 l0 13.86 l-2.62 0 z M48.04 6.140000000000001 l3.12 0 l0 13.86 l-3.12 0 l0 -13.86 z M63.62 17.32 l0 2.68 l-9.26 0 l0 -13.86 l3.12 0 l0 11.18 l6.14 0 z M65.42 9.02 q0.58 -0.24 1.21 -0.55 t1.23 -0.68 t1.15 -0.78 t0.99 -0.87 l2.08 0 l0 13.86 l-2.98 0 l0 -9.98 q-0.6 0.4 -1.34 0.73 t-1.44 0.57 z M78.22 20 q0.12 -1.46 0.5 -3.04 t0.93 -3.1 t1.23 -2.87 t1.38 -2.33 l-6.02 0 l0 -2.54 l9.7 0 l0 2.16 q-0.64 0.7 -1.41 1.94 t-1.46 2.81 t-1.2 3.37 t-0.63 3.6 l-3.02 0 z"></path>
    </g>
    <g id="SvgjsG1489" featurekey="m0CQaI-0"
        transform="matrix(0.4115806953480863,0,0,0.4115806953480863,34.62957733493533,176.7527693876989)"
        fill="#9896f1">
        <path
            d="M13.98 15.84 c-0.50468 1.3015 -1.3313 2.3516 -2.48 3.15 c-1.1605 0.80666 -2.4338 1.21 -3.82 1.21 c-1.8845 0 -3.4912 -0.69334 -4.82 -2.08 c-1.3067 -1.3635 -1.96 -2.9968 -1.96 -4.9 c0 -0.94666 0.17334 -1.8433 0.52 -2.69 s0.82666 -1.59 1.44 -2.23 c1.3289 -1.3867 2.9356 -2.08 4.82 -2.08 c1.3921 0 2.6588 0.39666 3.8 1.19 c1.1414 0.79344 1.9681 1.8368 2.48 3.13 l-1.54 0 c-0.73576 -1.3489 -1.8324 -2.2388 -3.29 -2.67 c-0.47334 -0.14 -1.0233 -0.21 -1.65 -0.21 s-1.2667 0.15 -1.92 0.45 s-1.2233 0.70334 -1.71 1.21 c-1.0333 1.0758 -1.55 2.3758 -1.55 3.9 c0 1.5109 0.51666 2.8042 1.55 3.88 c1.063 1.1067 2.3396 1.66 3.83 1.66 c1.0133 0 1.9433 -0.26666 2.79 -0.8 s1.5033 -1.24 1.97 -2.12 l1.54 0 z M35.316 15.5 c0 1.4729 -0.48002 2.633 -1.44 3.48 c-0.90666 0.8 -2.1134 1.2 -3.62 1.2 c-1.52 0 -2.7334 -0.4 -3.64 -1.2 c-0.96 -0.84704 -1.44 -2.007 -1.44 -3.48 l0 -9.1 l1.4 0 l0 9.3 c0 1.022 0.37 1.8086 1.11 2.36 c0.64422 0.48 1.5009 0.72 2.57 0.72 c1.6607 0 2.7806 -0.56 3.36 -1.68 c0.2 -0.38666 0.3 -0.85332 0.3 -1.4 l0 -9.3 l1.4 0 l0 9.1 z M48.812 13.280000000000001 l3.16 0 c0.78806 0 1.4347 -0.26666 1.94 -0.8 c0.52 -0.54888 0.78 -1.2194 0.78 -2.0116 s-0.24666 -1.445 -0.74 -1.9583 s-1.1533 -0.77 -1.98 -0.77 l-3.16 0 l0 5.54 z M56.092 10.5 c0 1.1907 -0.42334 2.1808 -1.27 2.97 c-0.74118 0.69092 -1.6401 1.0705 -2.6968 1.1388 l4.1868 5.3912 l-1.88 0 l-3.9874 -5.38 l-1.6327 0 l0 5.38 l-1.4 0 l0 -13.6 l4.36 0 c1.2109 0 2.2276 0.38334 3.05 1.15 c0.84666 0.78926 1.27 1.7726 1.27 2.95 z M69.08800000000001 20 l-1.4 0 l0 -13.6 l1.4 0 l0 13.6 z M93.46400000000001 13.16 c0 -1.5333 -0.54666 -2.8466 -1.64 -3.94 s-2.4134 -1.64 -3.96 -1.64 c-1.5333 0 -2.8466 0.54666 -3.94 1.64 s-1.64 2.4066 -1.64 3.94 c0 1.5467 0.54666 2.8666 1.64 3.96 s2.4066 1.64 3.94 1.64 c1.5467 0 2.8666 -0.54666 3.96 -1.64 s1.64 -2.4134 1.64 -3.96 z M94.864 13.16 c0 0.96 -0.18334 1.8667 -0.55 2.72 s-0.86666 1.5967 -1.5 2.23 s-1.3767 1.1333 -2.23 1.5 s-1.76 0.55 -2.72 0.55 s-1.8633 -0.18334 -2.71 -0.55 s-1.5867 -0.86666 -2.22 -1.5 s-1.1333 -1.3767 -1.5 -2.23 s-0.55 -1.76 -0.55 -2.72 s0.18334 -1.8667 0.55 -2.72 s0.86666 -1.5933 1.5 -2.22 s1.3733 -1.1233 2.22 -1.49 s1.75 -0.55 2.71 -0.55 s1.8667 0.18334 2.72 0.55 s1.5967 0.86332 2.23 1.49 s1.1333 1.3667 1.5 2.22 s0.55 1.76 0.55 2.72 z M116.50000000000001 15.5 c0 1.4729 -0.48002 2.633 -1.44 3.48 c-0.90666 0.8 -2.1134 1.2 -3.62 1.2 c-1.52 0 -2.7334 -0.4 -3.64 -1.2 c-0.96 -0.84704 -1.44 -2.007 -1.44 -3.48 l0 -9.1 l1.4 0 l0 9.3 c0 1.022 0.37 1.8086 1.11 2.36 c0.64422 0.48 1.5009 0.72 2.57 0.72 c1.6607 0 2.7806 -0.56 3.36 -1.68 c0.2 -0.38666 0.3 -0.85332 0.3 -1.4 l0 -9.3 l1.4 0 l0 9.1 z M132.37380000000002 13.5852 c-2.774 -0.64318 -4.1606 -1.833 -4.1592 -3.5694 c0.0009375 -1.2772 0.44806 -2.2326 1.3414 -2.8658 s1.9433 -0.95 3.15 -0.95 c2.644 0 4.2146 0.98666 4.7116 2.96 l-1.5143 0 c-0.27142 -1.1733 -1.3372 -1.76 -3.1972 -1.76 c-1.3133 0 -2.2308 0.38954 -2.7526 1.1687 c-0.1982 0.28756 -0.29632 0.65396 -0.29438 1.0992 c-0.0036328 0.83254 0.44954 1.4776 1.3595 1.9351 c0.42812 0.2272 1.3347 0.5202 2.7198 0.87896 s2.39 0.75912 3.0146 1.2011 c0.8687 0.61138 1.304 1.4737 1.306 2.587 c-0.0019531 1.3667 -0.543 2.4006 -1.6232 3.1016 c-0.9065 0.59228 -2.027 0.88844 -3.3618 0.88844 c-3.012 0 -4.758 -1.1467 -5.238 -3.44 l1.6551 0 c0.2566 1.44 1.4513 2.16 3.584 2.16 c1.5206 0 2.5834 -0.42278 3.1882 -1.2683 c0.23506 -0.3278 0.3526 -0.77502 0.3526 -1.3417 s-0.21898 -1.0272 -0.65696 -1.3817 c-0.62872 -0.51292 -1.8238 -0.9806 -3.5852 -1.403 z M176.808 20 l-2.12 -9.68 l-4.08 10.48 l-4.1 -10.48 l-2.1 9.68 l-1.44 0 l3.18 -14.5 l4.46 11.64 l4.46 -11.64 l3.16 14.5 l-1.42 0 z M190.72400000000002 20 l-1.4 0 l0 -13.6 l1.4 0 l0 13.6 z M204.52 9.98 l0 10.02 l-1.4 0 l0 -14.46 l7.64 10.86 l0 -10 l1.4 0 l0 14.44 z M235.116 13.2 c0 0.98666 -0.18334 1.8967 -0.55 2.73 s-0.86332 1.55 -1.49 2.15 s-1.3667 1.07 -2.22 1.41 s-1.7667 0.51 -2.74 0.51 l-3.56 0 l0 -13.6 l3.56 0 c0.97334 0 1.8867 0.17 2.74 0.51 s1.5933 0.81 2.22 1.41 s1.1233 1.3167 1.49 2.15 s0.55 1.7433 0.55 2.73 z M233.756 13.2 c0 -1.5509 -0.54666 -2.8442 -1.64 -3.88 c-1.0696 -1.0133 -2.3896 -1.52 -3.96 -1.52 l-2.2 0 l0 10.8 l2.2 0 c1.5704 0 2.8904 -0.50666 3.96 -1.52 c1.0933 -1.0358 1.64 -2.3292 1.64 -3.88 z M249.49200000000002 17.64 l-2.24 5.18 l-0.84 0 l1.16 -5.18 l1.92 0 z M277.14399999999995 13.2546 l3.16 0 c0.7809 0 1.4276 -0.26334 1.94 -0.79 c0.52 -0.53444 0.78 -1.203 0.78 -2.0058 c0 -0.80278 -0.24666 -1.4575 -0.74 -1.9642 s-1.1533 -0.76 -1.98 -0.76 l-3.16 0 l0 5.52 z M284.424 10.4946 c0 1.1907 -0.42334 2.1808 -1.27 2.97 c-0.82242 0.76666 -1.8391 1.15 -3.05 1.15 l-2.96 0 l0 5.38 l-1.4 0 l0 -13.6 l4.36 0 c1.203 0 2.2196 0.38 3.05 1.14 c0.84666 0.7749 1.27 1.7616 1.27 2.96 z M296.4804 15 l4.9479 0 l-2.4684 -6.26 z M304.91999999999996 20 l-1.52 0 l-1.459 -3.7 l-5.9755 0 l-1.4655 3.7 l-1.52 0 l5.98 -14.54 z M319.19379999999995 13.5852 c-2.774 -0.64318 -4.1606 -1.833 -4.1592 -3.5694 c0.0009375 -1.2772 0.44806 -2.2326 1.3414 -2.8658 s1.9433 -0.95 3.15 -0.95 c2.644 0 4.2146 0.98666 4.7116 2.96 l-1.5143 0 c-0.27142 -1.1733 -1.3372 -1.76 -3.1972 -1.76 c-1.3133 0 -2.2308 0.38954 -2.7526 1.1687 c-0.1982 0.28756 -0.29632 0.65396 -0.29438 1.0992 c-0.0036328 0.83254 0.44954 1.4776 1.3595 1.9351 c0.42812 0.2272 1.3347 0.5202 2.7198 0.87896 s2.39 0.75912 3.0146 1.2011 c0.8687 0.61138 1.304 1.4737 1.306 2.587 c-0.0019531 1.3667 -0.543 2.4006 -1.6232 3.1016 c-0.9065 0.59228 -2.027 0.88844 -3.3618 0.88844 c-3.012 0 -4.758 -1.1467 -5.238 -3.44 l1.6551 0 c0.2566 1.44 1.4513 2.16 3.584 2.16 c1.5206 0 2.5834 -0.42278 3.1882 -1.2683 c0.23506 -0.3278 0.3526 -0.77502 0.3526 -1.3417 s-0.21898 -1.0272 -0.65696 -1.3817 c-0.62872 -0.51292 -1.8238 -0.9806 -3.5852 -1.403 z M340.06979999999993 13.5852 c-2.774 -0.64318 -4.1606 -1.833 -4.1592 -3.5694 c0.0009375 -1.2772 0.44806 -2.2326 1.3414 -2.8658 s1.9433 -0.95 3.15 -0.95 c2.644 0 4.2146 0.98666 4.7116 2.96 l-1.5143 0 c-0.27142 -1.1733 -1.3372 -1.76 -3.1972 -1.76 c-1.3133 0 -2.2308 0.38954 -2.7526 1.1687 c-0.1982 0.28756 -0.29632 0.65396 -0.29438 1.0992 c-0.0036328 0.83254 0.44954 1.4776 1.3595 1.9351 c0.42812 0.2272 1.3347 0.5202 2.7198 0.87896 s2.39 0.75912 3.0146 1.2011 c0.8687 0.61138 1.304 1.4737 1.306 2.587 c-0.0019531 1.3667 -0.543 2.4006 -1.6232 3.1016 c-0.9065 0.59228 -2.027 0.88844 -3.3618 0.88844 c-3.012 0 -4.758 -1.1467 -5.238 -3.44 l1.6551 0 c0.2566 1.44 1.4513 2.16 3.584 2.16 c1.5206 0 2.5834 -0.42278 3.1882 -1.2683 c0.23506 -0.3278 0.3526 -0.77502 0.3526 -1.3417 s-0.21898 -1.0272 -0.65696 -1.3817 c-0.62872 -0.51292 -1.8238 -0.9806 -3.5852 -1.403 z M358.56799999999987 20 l-1.4 0 l0 -13.6 l1.4 0 l0 13.6 z M382.9439999999999 13.16 c0 -1.5333 -0.54666 -2.8466 -1.64 -3.94 s-2.4134 -1.64 -3.96 -1.64 c-1.5333 0 -2.8466 0.54666 -3.94 1.64 s-1.64 2.4066 -1.64 3.94 c0 1.5467 0.54666 2.8666 1.64 3.96 s2.4066 1.64 3.94 1.64 c1.5467 0 2.8666 -0.54666 3.96 -1.64 s1.64 -2.4134 1.64 -3.96 z M384.3439999999999 13.16 c0 0.96 -0.18334 1.8667 -0.55 2.72 s-0.86666 1.5967 -1.5 2.23 s-1.3767 1.1333 -2.23 1.5 s-1.76 0.55 -2.72 0.55 s-1.8633 -0.18334 -2.71 -0.55 s-1.5867 -0.86666 -2.22 -1.5 s-1.1333 -1.3767 -1.5 -2.23 s-0.55 -1.76 -0.55 -2.72 s0.18334 -1.8667 0.55 -2.72 s0.86666 -1.5933 1.5 -2.22 s1.3733 -1.1233 2.22 -1.49 s1.75 -0.55 2.71 -0.55 s1.8667 0.18334 2.72 0.55 s1.5967 0.86332 2.23 1.49 s1.1333 1.3667 1.5 2.22 s0.55 1.76 0.55 2.72 z M397.53999999999985 9.98 l0 10.02 l-1.4 0 l0 -14.46 l7.64 10.86 l0 -10 l1.4 0 l0 14.44 z M419.77639999999985 15 l4.9479 0 l-2.4684 -6.26 z M428.21599999999984 20 l-1.52 0 l-1.459 -3.7 l-5.9755 0 l-1.4655 3.7 l-1.52 0 l5.98 -14.54 z M436.37199999999984 7.66 l0 -1.3 l3.3 0 l1.4 0 l3.3 0 l0 1.3 l-3.3 0 l0 12.3 l-1.4 0 l0 -12.3 l-3.3 0 z M463.7479999999999 20 l-8.08 0 l0 -13.6 l8.08 0 l0 1.3 l-6.68 0 l0 4.84 l6.48 0 l0 1.32 l-6.48 0 l0 4.84 l6.68 0 l0 1.3 z M501.4999999999999 13.2 c0 0.98666 -0.18334 1.8967 -0.55 2.73 s-0.86332 1.55 -1.49 2.15 s-1.3667 1.07 -2.22 1.41 s-1.7667 0.51 -2.74 0.51 l-3.56 0 l0 -13.6 l3.56 0 c0.97334 0 1.8867 0.17 2.74 0.51 s1.5933 0.81 2.22 1.41 s1.1233 1.3167 1.49 2.15 s0.55 1.7433 0.55 2.73 z M500.1399999999999 13.2 c0 -1.5509 -0.54666 -2.8442 -1.64 -3.88 c-1.0696 -1.0133 -2.3896 -1.52 -3.96 -1.52 l-2.2 0 l0 10.8 l2.2 0 c1.5704 0 2.8904 -0.50666 3.96 -1.52 c1.0933 -1.0358 1.64 -2.3292 1.64 -3.88 z M521.3759999999999 20 l-8.08 0 l0 -13.6 l8.08 0 l0 1.3 l-6.68 0 l0 4.84 l6.48 0 l0 1.32 l-6.48 0 l0 4.84 l6.68 0 l0 1.3 z M538.6519999999999 20.82 l-6.18 -14.42 l1.52 0 l4.66 10.96 l4.64 -10.96 l1.52 0 z M563.9879999999999 20 l-8.08 0 l0 -13.6 l8.08 0 l0 1.3 l-6.68 0 l0 4.84 l6.48 0 l0 1.32 l-6.48 0 l0 4.84 l6.68 0 l0 1.3 z M577.7839999999999 18.6 l4.86 0 l0 1.4 l-4.86 0 l-0.7 0 l-0.7 0 l0 -13.6 l1.4 0 l0 12.2 z M604.9399999999999 13.16 c0 -1.5333 -0.54666 -2.8466 -1.64 -3.94 s-2.4134 -1.64 -3.96 -1.64 c-1.5333 0 -2.8466 0.54666 -3.94 1.64 s-1.64 2.4066 -1.64 3.94 c0 1.5467 0.54666 2.8666 1.64 3.96 s2.4066 1.64 3.94 1.64 c1.5467 0 2.8666 -0.54666 3.96 -1.64 s1.64 -2.4134 1.64 -3.96 z M606.3399999999999 13.16 c0 0.96 -0.18334 1.8667 -0.55 2.72 s-0.86666 1.5967 -1.5 2.23 s-1.3767 1.1333 -2.23 1.5 s-1.76 0.55 -2.72 0.55 s-1.8633 -0.18334 -2.71 -0.55 s-1.5867 -0.86666 -2.22 -1.5 s-1.1333 -1.3767 -1.5 -2.23 s-0.55 -1.76 -0.55 -2.72 s0.18334 -1.8667 0.55 -2.72 s0.86666 -1.5933 1.5 -2.22 s1.3733 -1.1233 2.22 -1.49 s1.75 -0.55 2.71 -0.55 s1.8667 0.18334 2.72 0.55 s1.5967 0.86332 2.23 1.49 s1.1333 1.3667 1.5 2.22 s0.55 1.76 0.55 2.72 z M619.536 13.2546 l3.16 0 c0.7809 0 1.4276 -0.26334 1.94 -0.79 c0.52 -0.53444 0.78 -1.203 0.78 -2.0058 c0 -0.80278 -0.24666 -1.4575 -0.74 -1.9642 s-1.1533 -0.76 -1.98 -0.76 l-3.16 0 l0 5.52 z M626.8159999999999 10.4946 c0 1.1907 -0.42334 2.1808 -1.27 2.97 c-0.82242 0.76666 -1.8391 1.15 -3.05 1.15 l-2.96 0 l0 5.38 l-1.4 0 l0 -13.6 l4.36 0 c1.203 0 2.2196 0.38 3.05 1.14 c0.84666 0.7749 1.27 1.7616 1.27 2.96 z M646.192 20 l-8.08 0 l0 -13.6 l8.08 0 l0 1.3 l-6.68 0 l0 4.84 l6.48 0 l0 1.32 l-6.48 0 l0 4.84 l6.68 0 l0 1.3 z M659.9879999999999 13.280000000000001 l3.16 0 c0.78806 0 1.4347 -0.26666 1.94 -0.8 c0.52 -0.54888 0.78 -1.2194 0.78 -2.0116 s-0.24666 -1.445 -0.74 -1.9583 s-1.1533 -0.77 -1.98 -0.77 l-3.16 0 l0 5.54 z M667.2679999999999 10.5 c0 1.1907 -0.42334 2.1808 -1.27 2.97 c-0.74118 0.69092 -1.6401 1.0705 -2.6968 1.1388 l4.1868 5.3912 l-1.88 0 l-3.9874 -5.38 l-1.6327 0 l0 5.38 l-1.4 0 l0 -13.6 l4.36 0 c1.2109 0 2.2276 0.38334 3.05 1.15 c0.84666 0.78926 1.27 1.7726 1.27 2.95 z M680.0239999999999 20.2 c-0.30666 0 -0.57666 -0.11002 -0.81 -0.33002 s-0.35 -0.48334 -0.35 -0.79 s0.11334 -0.57332 0.34 -0.79998 s0.5 -0.34 0.82 -0.34 s0.59666 0.11 0.83 0.33 s0.35 0.48666 0.35 0.8 s-0.12 0.58 -0.36 0.8 s-0.51334 0.33 -0.82 0.33 z"></path>
    </g>
</svg>